<svg xmlns="http://www.w3.org/2000/svg" width="786.4035pt" height="225pt" viewBox="0 0 786.4035 225"><path fill="#fff" d="M214.953 108.855c0 44.085-35.743 79.82-79.837 79.82-44.072 0-79.81-35.735-79.81-79.82 0-44.085 35.738-79.82 79.81-79.82 44.094 0 79.837 35.735 79.837 79.82" style="stroke-width:4.15036" transform="matrix(1.01608 0 0 1.01608 2.723 1.895)"/><path fill="#003668" d="M229.533 144.432c-12.7-8.624-28.953-5.109-37.486 7.865-7.13 10.841-17.88 12.194-22.055 12.194-13.572 0-22.873-9.558-25.62-19.44h-.01l-.074-.274-.083-.336c-1.083-4.122-1.353-6.097-1.353-10.48 0-23.632 24.255-49.945 59.176-49.945 35.763 0 56.224 27.226 61.487 42.354l-.253-.801c-10.147-29.592-38.22-50.875-71.257-50.875-41.587 0-75.304 33.713-75.304 75.308 0 37.175 26.815 69 64.01 69 29.667 0 49.597-16.639 58.74-39.557 5.027-12.534 1.462-27.268-9.919-35.013" style="stroke-width:4.15036" transform="matrix(1.01608 0 0 1.01608 -55.07 -39.912)"/><path fill="#e6002d" d="M263.999 127.84c-4.4-14.758-25.014-43.823-61.969-43.823-34.925 0-59.176 26.314-59.176 49.946 0 4.382.27 6.354 1.35 10.48-.45-1.806-.694-3.616-.694-5.375 0-24.616 24.64-41.674 49.987-41.674 34.298 0 62.085 27.803 62.085 62.09 0 26.89-15.468 50.152-37.943 61.333l.004.013c28.978-10.488 49.668-38.238 49.668-70.83 0-7.708-1.046-14.51-3.312-22.16" style="stroke-width:4.15036" transform="matrix(1.01608 0 0 1.01608 -55.07 -39.912)"/><path fill="#595757" d="M290.322 140.102v-12.206h-10.5v-6.072h10.5v-11.633h7.027v29.911zm-4.677 14.427c0-2.113-.772-3.922-2.312-5.441-1.536-1.52-3.378-2.275-5.532-2.275-2.109 0-3.923.756-5.442 2.275-1.514 1.519-2.278 3.328-2.278 5.44 0 2.15.764 3.977 2.278 5.471 1.52 1.494 3.333 2.245 5.442 2.245 2.154 0 3.996-.75 5.532-2.245 1.54-1.494 2.312-3.32 2.312-5.47m6.893.062c0 1.897-.39 3.682-1.17 5.346a14.741 14.741 0 0 1-3.13 4.395c-1.31 1.266-2.855 2.266-4.652 3.005-1.789.739-3.698 1.104-5.723 1.104-1.98 0-3.88-.365-5.69-1.104-1.814-.739-3.375-1.74-4.682-3.005a14.668 14.668 0 0 1-3.13-4.395 12.449 12.449 0 0 1-1.174-5.346c0-1.9.394-3.681 1.175-5.346a14.616 14.616 0 0 1 3.13-4.395c1.306-1.266 2.867-2.266 4.68-3.005a14.926 14.926 0 0 1 5.69-1.108c2.026 0 3.935.37 5.724 1.108 1.797.74 3.341 1.74 4.653 3.005a14.69 14.69 0 0 1 3.13 4.395c.78 1.665 1.17 3.445 1.17 5.346m-44.85-36.751v-6.006h32.39v6.006h-13.787l14.356 17.523-4.873 4.046-11.637-14.485-11.451 15.436-5.06-4.047 14.36-18.473zM347.692 124.354h-29.667v7.782h29.667zm-29.663-6.072h29.663v-7.147h6.96v27.139h-43.517v-27.14h6.894zM306.96 145.86h51.867v6.2H336.37v14.547h-7.015v-14.547H306.96zM408.48 141.752v-12.845h-9.866V122.9h9.865V110.19h7.027v31.563zm-4.682 12.775c0-2.109-.768-3.922-2.312-5.437-1.531-1.523-3.374-2.279-5.528-2.279-2.109 0-3.922.756-5.441 2.279-1.515 1.515-2.279 3.328-2.279 5.437 0 2.15.764 3.98 2.279 5.47 1.519 1.498 3.332 2.245 5.44 2.245 2.155 0 3.998-.747 5.53-2.245 1.543-1.49 2.31-3.32 2.31-5.47m6.899.066c0 1.897-.39 3.677-1.17 5.346a14.794 14.794 0 0 1-3.13 4.395c-1.312 1.266-2.855 2.262-4.653 3.005-1.788.739-3.698 1.104-5.723 1.104-1.984 0-3.88-.365-5.694-1.104-1.81-.743-3.374-1.739-4.678-3.005a14.807 14.807 0 0 1-3.133-4.395 12.52 12.52 0 0 1-1.17-5.346c0-1.9.394-3.685 1.17-5.345a14.65 14.65 0 0 1 3.133-4.396c1.304-1.265 2.868-2.27 4.678-3.004a14.948 14.948 0 0 1 5.694-1.109c2.025 0 3.935.37 5.723 1.109 1.798.734 3.341 1.739 4.653 3.004a14.637 14.637 0 0 1 3.13 4.396c.78 1.66 1.17 3.444 1.17 5.345m-45.04-33.655v-5.881h13.223v-5.503h7.462v5.503h12.589v5.881h-13.663l14.169 14.36-4.682 4.366-12.206-12.654-11.957 13.663-4.806-4.424 14.107-15.311zM470.847 166.61h-6.956v-56.42h6.956v21.752h8.097v7.026h-8.097zm-29.916-56.043 18.465 45.609-6.196 2.718-12.269-30.933-12.082 31.377-6.391-2.785zM531.258 147.251h-7.027v-37.063h7.027v15.178h7.209v6.388h-7.21zm-43.965 18.407v-16.95h7.022v10.753h37.951v6.197zm22.582-33.207V117.46H485.84v-6.139h30.929v21.13zm10.06 5.375v6.138H483.31v-6.138h11.446v-12.584h6.96v12.584zM585.714 110.189h7.027v56.42h-7.027zm-10.309 48.642h-30.044V133.02h22.387v-13.157H545.36v-6.2h29.413v25.5h-22.457v13.53h23.088zM643.085 122.52h-29.667v5.95h29.667zm-29.538 27.578v9.364h37.195v6.196h-44.218v-15.56zm29.538-33.647v-6.013h6.956v24.1h-18.278v5.757h22.457v6.139h-51.867v-6.139h22.391v-5.756h-18.22v-24.101h6.894v6.013zM702.165 124.354h-29.667v7.782h29.667zm-29.667-6.072h29.667v-7.147h6.956v27.139h-43.516v-27.14h6.893zM661.43 145.86h51.867v6.2H690.84v14.547h-7.018v-14.547h-22.392zM275.517 73.574h-4.782v-22.62h4.782v9.011h4.225V50.91h4.922v23.267h-4.922v-9.567h-4.225zm.091 10.679c0-1.332-.498-2.49-1.482-3.482-.996-.988-2.17-1.486-3.532-1.486-1.361 0-2.519.498-3.486 1.486-.959.992-1.44 2.15-1.44 3.482 0 1.328.481 2.478 1.44 3.436.967.96 2.125 1.436 3.486 1.436 1.362 0 2.536-.477 3.532-1.436.984-.958 1.482-2.108 1.482-3.436m5.018.046a8.097 8.097 0 0 1-.814 3.573 10.792 10.792 0 0 1-2.116 2.976 10.671 10.671 0 0 1-3.2 2.063 9.808 9.808 0 0 1-3.856.767 9.954 9.954 0 0 1-3.876-.767 10.657 10.657 0 0 1-3.23-2.063 10.954 10.954 0 0 1-2.112-2.976 8.094 8.094 0 0 1-.81-3.573c0-1.27.27-2.482.81-3.624a10.728 10.728 0 0 1 2.113-3.017c.93-.834 2.004-1.51 3.229-2.021a9.95 9.95 0 0 1 3.876-.764c1.361 0 2.648.253 3.856.764a11.328 11.328 0 0 1 3.2 2.021 10.574 10.574 0 0 1 2.116 3.017 8.392 8.392 0 0 1 .814 3.624m-18.158-16.813c0-1.237-.448-2.3-1.349-3.2-.892-.901-1.98-1.35-3.245-1.35-1.27 0-2.358.449-3.254 1.35-.901.9-1.35 1.963-1.35 3.2 0 1.24.449 2.307 1.35 3.208.896.896 1.984 1.349 3.254 1.349 1.265 0 2.353-.453 3.245-1.35.9-.9 1.349-1.966 1.349-3.207m4.781.053a7.825 7.825 0 0 1-.743 3.387 8.458 8.458 0 0 1-2.042 2.74c-.867.805-1.86 1.44-2.967 1.904-1.117.465-2.324.698-3.623.698-1.308 0-2.52-.233-3.649-.698a9.982 9.982 0 0 1-3-1.905 9.15 9.15 0 0 1-2.013-2.739 7.67 7.67 0 0 1-.768-3.387c0-1.207.257-2.34.768-3.394a9.797 9.797 0 0 1 2.013-2.785 10.455 10.455 0 0 1 3-1.86c1.13-.465 2.341-.693 3.649-.693 1.299 0 2.506.228 3.623.693 1.108.465 2.1 1.084 2.967 1.86a9.013 9.013 0 0 1 2.042 2.785 7.849 7.849 0 0 1 .743 3.394m-12.164-14.028v-3.436h5.478v3.436h7.616v4.271H246.63v-4.27ZM321.95 72.875v-8.96h-7.704v-4.458h7.703v-8.55h5.155v21.968zm-3.433 10.583c0-1.54-.565-2.876-1.698-3.988-1.129-1.112-2.482-1.673-4.063-1.673-1.544 0-2.88.56-3.988 1.673-1.117 1.112-1.677 2.449-1.677 3.988 0 1.582.56 2.922 1.677 4.022 1.108 1.096 2.444 1.644 3.988 1.644 1.581 0 2.934-.548 4.063-1.644 1.133-1.1 1.698-2.44 1.698-4.022m5.06.054c0 1.39-.283 2.702-.86 3.922a10.917 10.917 0 0 1-2.3 3.225c-.958.93-2.095 1.665-3.41 2.204a10.897 10.897 0 0 1-4.201.814 10.98 10.98 0 0 1-4.184-.814c-1.328-.54-2.477-1.274-3.432-2.204a10.684 10.684 0 0 1-2.295-3.225 9.075 9.075 0 0 1-.868-3.922c0-1.394.291-2.706.868-3.926a10.651 10.651 0 0 1 2.295-3.229c.955-.93 2.104-1.66 3.432-2.204a11.06 11.06 0 0 1 4.184-.813c1.482 0 2.884.274 4.2.813 1.316.544 2.453 1.274 3.412 2.204.958.93 1.726 2.005 2.299 3.23.577 1.22.86 2.53.86 3.925M290.65 56.531v-4.412h23.778v4.412H304.31l10.538 12.862-3.578 2.976-8.541-10.638-8.405 11.33-3.718-2.97 10.542-13.56zM367.738 77.424h-5.113V50.907h5.113v9.06h5.943v5.06h-5.943zm-16.02-14.859c0-.93-.179-1.801-.532-2.619a7.617 7.617 0 0 0-1.465-2.208 7.862 7.862 0 0 0-2.158-1.444 6.22 6.22 0 0 0-2.577-.556c-.93 0-1.806.187-2.627.556a8.504 8.504 0 0 0-2.204 1.444 8.376 8.376 0 0 0-1.44 2.208 6.284 6.284 0 0 0-.557 2.62c0 .929.187 1.796.557 2.602.373.805.85 1.519 1.44 2.137a7.368 7.368 0 0 0 2.204 1.46 6.52 6.52 0 0 0 2.627.532c.896 0 1.755-.174 2.577-.531a6.866 6.866 0 0 0 2.158-1.461 7.178 7.178 0 0 0 1.465-2.137 6.414 6.414 0 0 0 .532-2.603m-10.779 15.091v9.293h27.866v4.548h-33.016V77.656zm15.75-15.136c0 1.548-.315 3-.929 4.366a11.84 11.84 0 0 1-2.56 3.619 12.52 12.52 0 0 1-3.736 2.436c-1.407.606-2.918.91-4.524.91-1.61 0-3.133-.304-4.557-.91a11.969 11.969 0 0 1-3.715-2.436 11.663 11.663 0 0 1-2.548-3.62 10.388 10.388 0 0 1-.93-4.365c0-1.548.308-3.001.93-4.367a11.779 11.779 0 0 1 2.548-3.623 12.107 12.107 0 0 1 3.715-2.432 11.528 11.528 0 0 1 4.557-.909c1.606 0 3.117.303 4.524.91a12.672 12.672 0 0 1 3.735 2.431 11.96 11.96 0 0 1 2.561 3.623c.614 1.366.93 2.819.93 4.367M408.692 77.424v-12.21h-7.707v-4.55h7.707v-9.757h5.155v26.517zm-28.417 14.073V77.656h5.109v9.293h28.837v4.548zm-2.88-34.966v-4.412h23.773v4.412h-10.073l10.496 15.514-3.856 2.594-8.267-12.489-8.172 12.812-3.951-2.594 10.496-15.837zM450.811 61.314h-21.78v5.71h21.78zm-21.78-4.458h21.78V51.61h5.105v19.918h-31.945V51.61h5.06zm-8.123 20.242h38.075v4.549h-16.48V92.33h-5.16V81.647h-16.435z" style="stroke-width:4.15036" transform="matrix(1.01608 0 0 1.01608 2.723 1.895)"/></svg>